<svg xmlns="http://www.w3.org/2000/svg" viewBox="0 0 512 512" width="512" height="512">
  <rect width="512" height="512" fill="#ffffff"/>
  <g fill="none" stroke="#2d3748" stroke-width="5" stroke-linejoin="round" stroke-linecap="round">
    <path d="M 96 340 Q 256 420 416 340 L 380 300 Q 256 360 132 300 Z"/>
    <ellipse cx="256" cy="310" rx="168" ry="36"/>
    <circle cx="148" cy="248" r="52"/>
    <path d="M 148 196 L 132 160 L 168 176"/>
    <circle cx="256" cy="252" r="48"/>
    <path d="M 256 204 C 220 204 196 228 196 252 C 196 276 220 300 256 300 C 292 300 316 276 316 252 C 316 228 292 204 256 204 Z"/>
    <path d="M 360 280 Q 420 220 400 160 Q 380 120 340 148 Q 320 168 328 200 Q 336 240 360 280"/>
  </g>
</svg>
