<svg xmlns="http://www.w3.org/2000/svg" viewBox="0 0 512 512" width="512" height="512">
  <rect width="512" height="512" fill="#ffffff"/>
  <g fill="none" stroke="#2d3748" stroke-width="5" stroke-linejoin="round" stroke-linecap="round">
    <circle cx="96" cy="88" r="44"/>
    <line x1="96" y1="32" x2="96" y2="48"/>
    <line x1="96" y1="128" x2="96" y2="144"/>
    <line x1="40" y1="88" x2="56" y2="88"/>
    <line x1="136" y1="88" x2="152" y2="88"/>
    <rect x="232" y="300" width="48" height="140" rx="4"/>
    <path d="M 256 120 C 140 120 88 220 108 300 C 128 380 200 420 256 420 C 312 420 384 380 404 300 C 424 220 372 120 256 120 Z"/>
    <line x1="180" y1="220" x2="140" y2="200"/>
    <ellipse cx="128" cy="188" rx="28" ry="20"/>
    <path d="M 140 180 L 132 168 L 148 172"/>
    <line x1="332" y1="200" x2="372" y2="180"/>
    <ellipse cx="384" cy="168" rx="28" ry="20"/>
    <path d="M 372 160 L 380 148 L 364 152"/>
  </g>
</svg>
