<svg xmlns="http://www.w3.org/2000/svg" viewBox="0 0 512 512" width="512" height="512">
  <g fill="none" stroke="#2d3748" stroke-width="5" stroke-linejoin="round" stroke-linecap="round">
    <rect x="48" y="360" width="416" height="88" rx="12"/>
    <circle cx="400" cy="300" r="44"/>
    <line x1="400" y1="256" x2="400" y2="244"/>
    <ellipse cx="128" cy="300" rx="56" ry="68"/>
    <circle cx="108" cy="268" r="20"/>
    <circle cx="148" cy="268" r="20"/>
    <circle cx="128" cy="300" r="12"/>
    <ellipse cx="128" cy="340" rx="40" ry="28"/>
    <rect x="220" y="220" width="36" height="36" rx="4"/>
    <rect x="256" y="184" width="36" height="36" rx="4"/>
    <rect x="292" y="220" width="36" height="36" rx="4"/>
    <rect x="256" y="256" width="36" height="36" rx="4"/>
    <rect x="48" y="300" width="200" height="48" rx="8"/>
    <circle cx="72" cy="324" r="16"/>
    <circle cx="112" cy="324" r="16"/>
    <circle cx="152" cy="324" r="16"/>
    <circle cx="192" cy="324" r="16"/>
    <circle cx="232" cy="324" r="16"/>
    <ellipse cx="360" cy="300" rx="36" ry="52"/>
    <circle cx="360" cy="252" r="24"/>
    <line x1="340" y1="352" x2="320" y2="380"/>
    <line x1="380" y1="352" x2="400" y2="380"/>
  </g>
</svg>
