<svg xmlns="http://www.w3.org/2000/svg" viewBox="0 0 512 512" width="512" height="512">
  <g fill="none" stroke="#374151" stroke-width="4.5" stroke-linejoin="round" stroke-linecap="round">
    <circle cx="356" cy="56" r="40"/>
    <line x1="356" y1="8" x2="356" y2="22"/>
    <line x1="356" y1="90" x2="356" y2="104"/>
    <line x1="308" y1="56" x2="322" y2="56"/>
    <line x1="390" y1="56" x2="404" y2="56"/>
    <line x1="322" y1="26" x2="332" y2="36"/>
    <line x1="390" y1="26" x2="380" y2="36"/>
    <line x1="322" y1="86" x2="332" y2="76"/>
    <line x1="390" y1="86" x2="380" y2="76"/>
    <path d="M 128 360 L 128 400 M 120 400 L 136 400"/>
    <path d="M 128 352 C 104 352 88 336 88 320 C 88 300 104 288 128 288 C 152 288 168 300 168 320 C 168 336 152 352 128 352 Z"/>
    <circle cx="128" cy="320" r="20"/>
    <ellipse cx="120" cy="200" rx="48" ry="52" transform="rotate(-18 120 200)"/>
    <ellipse cx="120" cy="200" rx="28" ry="32" transform="rotate(-18 120 200)"/>
    <ellipse cx="336" cy="200" rx="48" ry="52" transform="rotate(18 336 200)"/>
    <ellipse cx="336" cy="200" rx="28" ry="32" transform="rotate(18 336 200)"/>
    <ellipse cx="256" cy="224" rx="14" ry="72"/>
    <circle cx="256" cy="148" r="18"/>
    <path d="M 248 140 L 244 124 L 252 132"/>
    <path d="M 264 140 L 268 124 L 260 132"/>
    <path d="M 60 400 Q 256 440 452 400"/>
    <path d="M 80 400 Q 128 380 176 392 Q 256 420 336 392 Q 384 380 432 400"/>
  </g>
</svg>
