<svg xmlns="http://www.w3.org/2000/svg" viewBox="0 0 512 512" width="512" height="512">
  <rect width="512" height="512" fill="#ffffff"/>
  <g fill="none" stroke="#2d3748" stroke-width="5" stroke-linejoin="round" stroke-linecap="round">
    <circle cx="400" cy="90" r="48"/>
    <line x1="400" y1="28" x2="400" y2="48"/>
    <line x1="400" y1="132" x2="400" y2="152"/>
    <line x1="338" y1="90" x2="358" y2="90"/>
    <line x1="442" y1="90" x2="462" y2="90"/>
    <line x1="356" y1="46" x2="370" y2="60"/>
    <line x1="444" y1="46" x2="430" y2="60"/>
    <line x1="356" y1="134" x2="370" y2="120"/>
    <line x1="444" y1="134" x2="430" y2="120"/>
    <path d="M 196 168 L 176 128 L 216 148 Z"/>
    <path d="M 316 168 L 336 128 L 296 148 Z"/>
    <circle cx="256" cy="200" r="72"/>
    <circle cx="228" cy="192" r="8" fill="#2d3748"/>
    <circle cx="284" cy="192" r="8" fill="#2d3748"/>
    <path d="M 240 220 Q 256 236 272 220"/>
    <ellipse cx="256" cy="330" rx="100" ry="80"/>
    <path d="M 156 310 Q 96 300 88 360 Q 84 400 120 388 Q 148 378 156 340"/>
    <line x1="220" y1="400" x2="220" y2="430"/>
    <line x1="292" y1="400" x2="292" y2="430"/>
  </g>
</svg>
